<?xml version="1.0" encoding="UTF-8"?>
<svg id="Layer_1" data-name="Layer 1" xmlns="http://www.w3.org/2000/svg" viewBox="0 0 130 62.82">
  <defs>
    <style>
      .cls-1 {
        fill: #172e38;
      }

      .cls-1, .cls-2 {
        stroke-width: 0px;
      }

      .cls-2 {
        fill: #005eb8;
      }
    </style>
  </defs>
  <g>
    <path class="cls-2" d="m121.99,5.37c6.84-.19,7.98,5.89,7.98,10.25l-5.51.53c0-2.55-.34-5.62-2.28-5.62-1.41.08-1.94,1.67-1.94,3.76,0,2.62,2.28,5.62,4.48,8.77,2.62,3.95,5.28,7.71,5.28,11.93,0,5.16-1.67,9.72-7.9,9.72-7.29,0-8.24-5.54-8.24-11.24l5.62-.53c0,3.27.34,6.57,2.73,6.57,1.67,0,2.28-1.82,2.28-4.22,0-2.55-2.47-5.7-4.56-8.96-2.62-3.95-5.16-7.9-5.16-12-.15-4.14,1.9-8.89,7.22-8.96"/>
    <rect class="cls-2" x="105.09" y="5.71" width="5.7" height="38.59"/>
    <path class="cls-2" d="m96.31,44.37l-2.89-16.22h-1.59v16.22h-5.62V5.78h5.7c6.76,0,9.65,3.95,9.65,11.13,0,3.76-.95,7.29-3.15,8.77l3.61,18.69h-5.7Zm-4.48-33.04v11.39c1.59,0,4.22-.27,4.22-5.7s-2.62-5.7-4.22-5.7"/>
    <path class="cls-2" d="m64.91,44.37l5.77-38.59h6.95l5.77,38.59h-5.54l-1.06-7.9h-5.43l-1.06,7.9h-5.39Zm9.65-26.13l-.19-.95h-.34l-.19.95-1.67,12.19h3.95l-1.56-12.19Z"/>
    <path class="cls-2" d="m51.38,44.37h-4.48V5.78h4.48c10.52.08,11.32,4.22,11.32,19.29s-.8,19.22-11.32,19.29m1.25-5.7c4.03,0,4.22-.95,4.22-13.67.08-12.65-.27-13.6-4.22-13.6v27.27Z"/>
    <polygon class="cls-2" points="30.95 44.37 27.27 20.1 27.08 18.51 26.74 18.51 26.74 20.1 26.74 44.37 21.57 44.37 21.57 5.71 28.41 5.71 31.83 23.41 32.09 25.42 32.17 25.42 32.43 23.41 35.85 5.71 42.8 5.71 42.8 44.37 37.52 44.37 37.52 20.1 37.52 18.51 37.18 18.51 36.99 20.1 33.31 44.37 30.95 44.37"/>
    <path class="cls-2" d="m8.92,18.05l.19-.95h.34l.19.95,1.56,12.19-4.63,5.96,2.35-18.15Zm-3.15-12.46L0,44.22h5.51l6.49-7.9,1.06,7.9h5.54L12.72,5.59h-6.95Z"/>
  </g>
  <g>
    <path class="cls-1" d="m51.71,58.13l-.71-1.95h-2.94l-.71,1.95h-.71l2.5-6.7h.83l2.5,6.7h-.75Zm-2.16-5.94h-.04l-1.25,3.39h2.52l-1.23-3.39Z"/>
    <path class="cls-1" d="m56.81,58.13v-3.22c0-.94-.49-1.26-1.27-1.26-.45,0-.94.12-1.57.35v4.13h-.67v-4.94h.57l.03.25c.61-.2,1.24-.39,1.81-.39s1.09.15,1.42.55c.3.36.36.81.36,1.34v3.19h-.67Z"/>
    <path class="cls-1" d="m61.85,58.13v-6.7h.7v6.7h-.7Z"/>
    <path class="cls-1" d="m67.55,58.13v-3.22c0-.94-.49-1.26-1.27-1.26-.45,0-.94.12-1.57.35v4.13h-.67v-4.94h.57l.03.25c.61-.2,1.24-.39,1.81-.39s1.09.15,1.42.55c.3.36.36.81.36,1.34v3.19h-.67Z"/>
    <path class="cls-1" d="m71.89,58c-.36.2-.82.26-1.39.26-.41,0-.88-.03-1.36-.08v-.59c.47.04.94.08,1.32.08.41,0,.72-.03.99-.14.32-.14.43-.42.43-.71,0-.42-.24-.66-.69-.79-.26-.09-.54-.16-.89-.24-.74-.22-1.16-.55-1.16-1.35,0-.42.17-.88.61-1.13.35-.2.78-.25,1.29-.25.35,0,.78.03,1.23.07v.58c-.44-.05-.87-.08-1.2-.08-.36,0-.64.03-.88.13-.31.14-.4.4-.4.67,0,.39.22.6.65.74.25.08.52.15.87.24.77.22,1.22.57,1.22,1.41,0,.44-.17.92-.63,1.18Z"/>
    <path class="cls-1" d="m73.4,51.91v-.8h.77v.8h-.77Zm.67,6.22h-.63v-4.94h.67v4.94h-.05Z"/>
    <path class="cls-1" d="m78.54,57.61c-.5.18-1.03.35-1.56.35s-.96-.16-1.29-.5c-.43-.45-.61-1.08-.61-1.95,0-.92.31-1.62.8-2.02.41-.32.9-.45,1.47-.45.47,0,.93.13,1.33.29l.03-.16h.5v4.69c0,.67-.1,1.22-.51,1.64-.47.49-1.21.56-1.9.56-.47,0-.94-.03-1.37-.06v-.61c.37.04.89.07,1.27.07.64,0,1.12-.03,1.45-.32.36-.32.38-.86.38-1.28v-.26Zm0-3.74c-.35-.15-.73-.25-1.11-.25-1.09,0-1.65.57-1.65,1.89s.54,1.86,1.35,1.86c.46,0,.91-.13,1.41-.31v-3.18Z"/>
    <path class="cls-1" d="m83.91,58.13v-3.22c0-.94-.49-1.26-1.24-1.26-.43,0-.88.12-1.48.34v4.14h-.67v-7.02h.67v2.31c.56-.18,1.12-.36,1.65-.36s1.05.15,1.38.55c.29.36.36.81.36,1.34v3.19h-.67Z"/>
    <path class="cls-1" d="m87.49,58.26c-.57,0-1.11-.22-1.3-.89-.11-.36-.13-.82-.13-1.28v-2.33h-.85v-.58h.85l.09-1.5h.58v1.5h1.5v.58h-1.5v2.26c0,.36,0,.71.08,1.02.11.47.36.64.81.64.24,0,.51-.06.71-.1v.57c-.24.05-.56.12-.84.12Z"/>
    <path class="cls-1" d="m93.51,58.26c-.5,0-1-.15-1.4-.56-.46-.48-.65-1.17-.65-2.04s.23-1.68.85-2.16c.49-.37,1.04-.45,1.6-.45.36,0,.73.03,1.13.07v.61c-.36-.05-.74-.08-1.13-.08-1.25,0-1.77.65-1.77,2.02,0,1.22.48,2,1.51,2,.44,0,.94-.14,1.47-.29v.59c-.52.15-1.07.3-1.62.3Z"/>
    <path class="cls-1" d="m96.36,57.75c-.47-.4-.7-1.04-.71-2.08,0-1.06.24-1.69.71-2.09.44-.37,1.03-.52,1.6-.52s1.17.15,1.6.52c.47.4.71,1.04.71,2.08s-.24,1.69-.71,2.09c-.43.38-1.02.52-1.6.52s-1.16-.14-1.6-.52Zm3.23-2.08c0-1.36-.49-2.04-1.62-2.04s-1.61.61-1.61,2.03.49,2.05,1.61,2.05,1.62-.62,1.62-2.04Z"/>
    <path class="cls-1" d="m108.09,58.13v-3.22c0-.94-.49-1.26-1.25-1.26-.46,0-.94.14-1.61.38.11.27.14.59.14.91v3.19h-.67v-3.22c0-.94-.49-1.26-1.24-1.26-.43,0-.88.12-1.48.34v4.14h-.67v-4.94h.57l.03.25c.59-.2,1.17-.39,1.73-.39.51,0,1.01.14,1.33.5.63-.22,1.46-.5,2.06-.5.54,0,1.05.16,1.38.55.28.36.35.81.35,1.34v3.19h-.66Z"/>
    <path class="cls-1" d="m110.05,59.94v-6.75h.57l.03.25c.54-.18,1.15-.39,1.73-.39s1.03.18,1.38.53c.46.47.64,1.16.64,2.07,0,.97-.33,1.73-.85,2.14-.42.33-.95.47-1.55.47-.44,0-.89-.09-1.27-.23v1.91h-.67Zm2.18-6.29c-.49,0-1,.16-1.51.35v3.43c.37.18.79.27,1.19.27,1.14,0,1.78-.62,1.78-2.04s-.61-2.02-1.47-2.02Z"/>
    <path class="cls-1" d="m118.56,58.13l-.02-.25c-.64.21-1.17.39-1.79.39-.41,0-.83-.1-1.14-.38-.32-.28-.48-.65-.48-1.14s.22-1.03.71-1.28c.37-.2.75-.22,1.27-.22.37,0,.9.03,1.35.08v-.24c0-1.1-.42-1.43-1.6-1.43-.4,0-.79.04-1.16.09v-.6c.42-.04.85-.08,1.26-.08.62,0,1.27.07,1.72.5.41.4.46.93.46,1.62v2.95h-.58Zm-.1-2.29c-.42-.05-.98-.08-1.37-.08-.96,0-1.3.36-1.3.97s.41.98,1.1.98c.5,0,1.03-.16,1.58-.34v-1.53Z"/>
    <path class="cls-1" d="m123.95,58.13v-3.22c0-.94-.49-1.26-1.27-1.26-.45,0-.94.12-1.58.35v4.13h-.67v-4.94h.57l.03.25c.61-.2,1.24-.39,1.81-.39s1.09.15,1.42.55c.3.36.36.81.36,1.34v3.19h-.67Z"/>
    <path class="cls-1" d="m125.34,60.03v-.61c.24.03.44.05.62.05.55,0,.88-.26,1.13-.98l.13-.36-2.08-4.94h.74l1.69,4.16h.03l1.5-4.16h.7l-2.06,5.5c-.37.99-.89,1.39-1.72,1.39-.19,0-.45-.02-.67-.05Z"/>
  </g>
</svg>